<svg xmlns="http://www.w3.org/2000/svg" width="256" height="256"><path fill-opacity=".016" d="M0 128.004v128.004l128.25-.254 128.25-.254.254-127.75L257.008 0H0v128.004m.485.496c0 70.4.119 99.053.265 63.672.146-35.38.146-92.98 0-128C.604 29.153.485 58.1.485 128.5" fill="#00356b" fill-rule="evenodd"/><path fill-opacity=".366" d="M21.066 59.25c.057 51.623.239 58.606 1.416 54.25 6.834-25.314 20.248-38.046 46.153-43.806C78.053 67.599 80.722 67.5 127.5 67.5c46.778 0 49.447.099 58.865 2.194 17.391 3.867 30.235 11.774 37.49 23.079 3.369 5.251 7.875 16.472 9.126 22.727.44 2.201.849-22.869.909-55.75L234 0h-26.2c-20.378 0-25.933.267-25 1.2.66.66 1.2 2.393 1.2 3.852 0 1.458 2.007 5.707 4.46 9.442 7.196 10.956 7.09 17.843-.446 28.891-2.279 3.341-4.014 7.07-4.014 8.628 0 4.583-4.843 6.443-6.376 2.449-1.015-2.644 2.001-11.09 5.678-15.906 3.164-4.144 3.698-5.591 3.698-10.019 0-4.466-.541-5.901-3.944-10.461-2.169-2.908-4.227-6.701-4.574-8.431-.347-1.73-.838-3.885-1.091-4.79-.252-.904.264-2.367 1.146-3.25C180.011.132 177.956 0 153.449 0c-21.212 0-26.492.257-25.712 1.25.54.688 1.26 2.721 1.601 4.519.341 1.798 2.542 5.994 4.891 9.325 4.091 5.802 4.271 6.366 4.271 13.406 0 7.053-.174 7.596-4.321 13.477-2.377 3.37-4.572 7.672-4.879 9.559-.719 4.431-2.705 6.202-4.906 4.376-2.832-2.35-1.237-9.283 3.747-16.287 3.747-5.266 4.359-6.827 4.359-11.125 0-4.292-.612-5.86-4.321-11.072-4.683-6.579-6.428-13.218-4.187-15.918C125.104.17 122.299 0 99.087 0 73.536 0 72.954.045 73.965 1.934 74.534 2.998 75 4.958 75 6.29c0 1.333 1.504 4.4 3.342 6.816 5.186 6.819 6.017 8.945 6.017 15.394s-.831 8.575-6.017 15.394C76.405 46.441 75 49.458 75 51.072c0 3.903-2.519 6.256-5.176 4.834-1.613-.864-1.911-1.721-1.431-4.123.334-1.668.607-3.56.607-4.205 0-.644 2.025-4.255 4.5-8.023 6.086-9.267 6.107-12.812.126-21.918-4.624-7.039-6.524-13.85-4.533-16.249C70.07.21 66.515 0 45.622 0H21l.066 59.25M233 122.532c0 5.997-5.989 14.8-12.326 18.119-1.555.813-4.705 1.8-7 2.192l-4.174.712-.5 51.65c-.487 50.259-.556 51.726-2.571 54.473-1.139 1.552-3.614 3.609-5.5 4.57-3.385 1.726-3.195 1.749 14.821 1.75L234 256v-68c0-37.4-.225-68-.5-68s-.5 1.139-.5 2.532M21.033 188.75L21 256l18.25-.002c18.016-.001 18.206-.024 14.821-1.75-1.886-.961-4.361-3.018-5.5-4.57-2.015-2.747-2.084-4.214-2.571-54.473l-.5-51.65-4.174-.712c-8.621-1.472-15.449-7.41-18.424-16.026-1.817-5.261-1.837-4.606-1.869 61.933M53 145.32c0 .725 1.454 1.963 3.23 2.75 2.508 1.11 4.744 4 10.004 12.93l6.773 11.5-.254 8.97-.253 8.971-3.678 1.029c-7.388 2.068-4.512 3.026 9.928 3.307 12.235.239 14.25.062 14.25-1.25 0-.84-.8-1.527-1.777-1.527-.978 0-2.778-.701-4-1.557-2-1.4-2.223-2.407-2.223-10.031v-8.475l6.145-10.445c7.138-12.132 8.805-13.892 13.162-13.892 6.954 0 6.693-.853 6.693 21.872v20.536l-4.5 1.203c-2.568.687-4.5 1.794-4.5 2.579 0 1.127 3.118 1.315 17.25 1.043 15.237-.294 17.658-.573 20.747-2.387 10.32-6.063 10.783-18.886.894-24.783-3.692-2.201-3.902-2.525-2.031-3.119 6.155-1.953 8.271-11.665 3.504-16.082-4.187-3.881-8.418-4.45-33.114-4.456-19.282-.005-23.25.233-23.25 1.396 0 .771 1.35 1.873 3 2.448s2.99 1.407 2.978 1.848c-.012.441-2.201 4.562-4.866 9.158l-4.844 8.355-3.28-5.855c-1.804-3.221-4.157-7.327-5.228-9.125l-1.947-3.27 3.093-1.078c1.702-.593 3.094-1.71 3.094-2.481 0-1.128-2.443-1.402-12.5-1.402-9.685 0-12.5.297-12.5 1.32m99 .072c0 .765 1.235 1.701 2.744 2.08 5.231 1.313 5.256 1.417 5.256 22.091 0 20.9.204 20.138-5.886 21.937-7.126 2.105-3.055 3 13.642 3 15.066 0 17.145-.21 20.744-2.098 4.93-2.585 7.784-7.255 7.907-12.939.112-5.193-2.37-8.977-8.001-12.197-2.148-1.228-3.378-2.241-2.733-2.25 2.501-.035 7.274-5.216 7.905-8.581.849-4.525-1.451-8.02-6.906-10.497-3.502-1.59-6.622-1.898-19.422-1.916-12.371-.018-15.25.241-15.25 1.37m-29 10.912v8.305l4.097-.103c5.183-.13 6.409-2.221 6.014-10.256-.159-3.221-3.605-6.25-7.111-6.25h-3v8.304m48 0v8.305l4.246-.107c3.445-.086 4.481-.569 5.486-2.554 3.258-6.438-.342-13.948-6.687-13.948H171v8.304m-47.783 22.964l.283 11.232 3.531.297c2.706.228 4.077-.283 5.866-2.187 3.082-3.281 3.897-10.174 1.704-14.415-1.799-3.478-3.518-4.613-8.384-5.536l-3.282-.622.282 11.231m48.481-10.632c-1.239 1.238-.797 19.865.502 21.164 1.787 1.787 6.268 1.451 8.883-.666 1.872-1.516 2.383-3.081 2.716-8.323.398-6.241.305-6.545-2.771-9.134-1.75-1.472-3.785-2.677-4.523-2.677-.738 0-1.964-.239-2.725-.531-.762-.292-1.698-.217-2.082.167" fill="#00356b" fill-rule="evenodd"/><path fill-opacity=".239" d="M21.045 58.25l.044 58.25 2.277-7.024c9.067-27.981 26.318-39.415 64.029-42.441 16.618-1.334 63.592-1.334 80.21 0 37.711 3.026 54.962 14.46 64.029 42.441l2.277 7.024.044-58.25L234 0h-26.122c-20.755 0-25.921.257-25.141 1.25.54.688 1.26 2.721 1.601 4.519.341 1.798 2.542 5.994 4.891 9.325 4.091 5.802 4.271 6.366 4.271 13.406 0 7.036-.181 7.606-4.258 13.387-2.342 3.32-4.603 7.7-5.025 9.732-.928 4.465-3.33 6.362-5.633 4.451-.871-.723-1.58-2.497-1.574-3.942.011-2.947 3.722-10.879 7.497-16.026 3.377-4.602 3.377-10.602 0-15.204-6.239-8.506-8.97-17.035-6.307-19.698.933-.933-4.519-1.2-24.535-1.2-25.134 0-25.711.045-24.7 1.934.569 1.064 1.035 2.957 1.035 4.207s1.783 4.814 3.962 7.921c7.229 10.305 7.221 19.31-.024 29.021-2.166 2.903-3.938 6.352-3.938 7.663 0 3.459-1.781 6.254-3.985 6.254-5.104 0-4.087-9.228 1.967-17.859C131.35 34.339 132 32.619 132 28.5s-.65-5.839-4.018-10.641c-4.186-5.968-6.375-13.405-4.783-16.25C124.016.149 121.724 0 98.427 0c-20.4 0-25.468.257-24.68 1.25.546.688 1.285 2.875 1.642 4.86.357 1.986 2.188 5.586 4.068 8 6.913 8.877 7.205 19.269.777 27.645-2.004 2.61-4.158 6.749-4.787 9.198-1.356 5.276-3.498 7.08-5.969 5.028-2.92-2.423-1.389-9.256 3.663-16.356C76.888 34.359 77.5 32.798 77.5 28.5c0-4.292-.612-5.86-4.321-11.072-4.683-6.579-6.428-13.218-4.187-15.918C70.103.17 67.465 0 45.622 0H21l.045 58.25m.022 131L21 256l17.75-.023c17.251-.022 17.655-.069 14.371-1.687-1.858-.915-4.219-3.043-5.246-4.727-1.759-2.885-1.868-6.033-1.871-54.185L46 144.256l-4.25-.68c-8.83-1.412-16.586-8.168-19.28-16.798-1.146-3.668-1.346 5.245-1.403 62.472m211.521-62.868c-1.451 7.737-10.499 15.781-19.338 17.194l-4.25.68-.004 51.122c-.003 48.152-.112 51.3-1.871 54.185-1.027 1.684-3.388 3.812-5.246 4.727-3.284 1.618-2.88 1.665 14.371 1.687L234 256v-66.5c0-36.575-.175-66.5-.389-66.5-.213 0-.674 1.522-1.023 3.382M98 144.898l-12.5.602 3.867 1.748c3.684 1.665 3.798 1.853 2.415 4-.798 1.238-3.139 5.289-5.202 9.002-2.064 3.713-4.051 6.744-4.416 6.736-.687-.015-9.414-15.517-9.989-17.746-.188-.726.976-1.52 2.75-1.875 6.63-1.326 2.49-2.365-9.425-2.365-7.667 0-12.5.387-12.5 1 0 .55.614 1 1.365 1 2.925 0 6.687 4.433 13.029 15.354C73.953 173.65 74 173.784 74 181.308c0 6.698-.258 7.76-2.223 9.135-1.222.856-3.247 1.557-4.5 1.557-1.357 0-2.277.606-2.277 1.5 0 1.262 2.222 1.5 14 1.5s14-.238 14-1.5c0-.933-.944-1.5-2.5-1.5-4.722 0-6.5-3.141-6.5-11.488 0-7.43.051-7.573 6.626-18.75 3.645-6.194 7.582-12.039 8.75-12.99 2.655-2.16 7.483-2.26 10.401-.215 2.167 1.517 2.223 2.045 2.223 20.877 0 21.137-.02 21.209-6.056 22.444-1.674.342-2.908 1.072-2.744 1.622.183.609 6.166 1 15.3 1 12.135 0 15.905-.349 19.737-1.828 6.366-2.456 9.149-6.466 9.214-13.276.056-5.98-2.426-9.579-8.345-12.098l-3.393-1.445 3.027-1.841c8.308-5.053 8.285-13.303-.051-17.71-3.62-1.913-19.064-2.447-40.689-1.404m57.75-.182c-3.683.558-3.473 1.787.5 2.926l3.25.931.28 19.964c.272 19.36.215 20.016-1.861 21.713-1.177.963-3.216 1.75-4.53 1.75-1.525 0-2.389.58-2.389 1.603 0 1.419 1.857 1.561 16.25 1.237 13.733-.308 16.868-.673 20.237-2.352 10.749-5.359 11.535-19.375 1.377-24.557l-4.095-2.09 3.489-2.371c3.961-2.691 4.742-4.189 4.742-9.1 0-4.577-3.626-7.91-10.123-9.303-4.748-1.018-21.307-1.232-27.127-.351m-33.132 2.999c-.34.34-.618 4.368-.618 8.952V165h4.378c5.249 0 6.691-1.435 7.354-7.318.4-3.549.068-4.775-1.873-6.896-2.261-2.473-7.949-4.363-9.241-3.071M171 156v9h4.14c2.77 0 4.579-.579 5.468-1.75 1.578-2.079 1.811-9.598.38-12.272-.839-1.568-6.381-3.951-9.238-3.972-.412-.003-.75 4.044-.75 8.994m-49 22.345c0 10.088.118 10.686 2.394 12.178 5.544 3.632 11.595-1.979 11.602-10.757.005-6.353-3.641-10.641-9.746-11.459l-4.25-.57v10.608m49 .676c0 10.786.053 11.046 2.5 12.161 7.214 3.287 14.325-8.818 10.043-17.098-1.683-3.255-6.57-6.084-10.511-6.084-1.92 0-2.032.609-2.032 11.021" fill="#00356b" fill-rule="evenodd"/><path fill-opacity=".628" d="M21.056 57.25l.056 57.25 2.765-7.657c9.077-25.13 25.424-36.285 58.334-39.804 12.585-1.346 77.993-1.346 90.578 0 33.185 3.549 49.843 15.069 58.44 40.416l2.728 8.045.022-57.75L234 0h-25.535c-24.936 0-25.511.045-24.5 1.934.569 1.064 1.035 2.957 1.035 4.207s1.808 4.85 4.018 8c6.955 9.915 6.964 18.79.03 28.675-2.226 3.174-4.048 6.903-4.048 8.286 0 3.676-2.178 6.149-5.056 5.743-2.09-.295-2.488-.955-2.75-4.557-.336-4.634.305-6.235 5.67-14.16 4.969-7.34 4.969-11.916 0-19.256-5.43-8.021-6.081-9.675-5.699-14.479L177.514 0h-24.957c-19.411 0-24.69.267-23.757 1.2.66.66 1.2 2.41 1.2 3.888 0 1.478 1.622 5.045 3.604 7.927 8.599 12.501 8.346 19.99-1.111 32.883-1.371 1.869-2.493 4.626-2.493 6.127 0 4.718-4.907 6.664-7.285 2.888-1.667-2.647.095-8.327 4.809-15.505 6.059-9.224 6.059-12.592 0-21.816-4.882-7.433-6.479-12.834-4.657-15.751C123.972.072 123.048 0 99.099 0H74.181l1.334 5.056c.734 2.782 2.426 6.494 3.761 8.25C83.597 18.99 85 22.716 85 28.5c0 5.792-1.403 9.509-5.744 15.22-1.347 1.771-2.997 5.371-3.667 8-1.108 4.344-1.488 4.78-4.154 4.78-2.734 0-2.956-.289-3.241-4.212-.335-4.619.311-6.243 5.586-14.039 5.182-7.657 4.986-12.321-.863-20.542C68.927 12.1 68.5 10.945 68.5 5.753V.006L44.75.003 21 0l.056 57.25m-.046 133L21 256h34.296l-3.398-2.27c-7.038-4.702-6.895-3.465-6.896-59.48L45 144h-2.378c-6.687 0-15.667-6.753-19.271-14.493L21.02 124.5l-.01 65.75m211.085-61.635C229.421 136.01 219.25 144 212.511 144H210l-.002 50.25c-.001 56.015.142 54.778-6.896 59.48l-3.398 2.27H234v-65.5c0-36.025-.135-65.5-.299-65.5-.165 0-.887 1.627-1.606 3.615M53.254 145.588c.323.323 2.036 1.335 3.805 2.25 2.39 1.234 4.983 4.699 10.079 13.47L74 173.116v8.463c0 7.853-.162 8.527-2.25 9.333-7.508 2.9-7.378 2.953 7.25 2.941 11.386-.008 13.856-.237 11.5-1.062-5.804-2.035-6.5-3.347-6.5-12.25v-8.148l6.09-10.447C97.313 149.558 99.799 147 104.622 147c7.473 0 7.378-.283 7.378 21.88 0 21.809-.003 21.821-6.5 23.736-2.137.63 1.316.968 12 1.177 17.673.346 22.241-.595 26.514-5.462 2.516-2.865 2.986-4.24 2.986-8.731 0-6.314-2.266-9.843-7.545-11.752-1.916-.693-3.365-1.591-3.22-1.994.146-.404 1.809-1.773 3.696-3.044 6.714-4.52 6.029-12.561-1.355-15.915-3.595-1.633-6.876-1.854-27.826-1.873-15.181-.014-23.75.339-23.75.978 0 .55.845 1 1.878 1 1.032 0 2.389.616 3.014 1.369.884 1.066-.02 3.39-4.085 10.494-2.871 5.018-5.541 8.789-5.934 8.38-.393-.408-2.954-4.636-5.692-9.395-5.05-8.779-5.248-10.848-1.04-10.848.958 0 2.019-.45 2.359-1 .4-.647-3.879-1-12.108-1-6.999 0-12.461.264-12.138.588M153 146c0 .55 1.07 1 2.378 1 4.402 0 4.681 1.47 4.393 23.128L159.5 190.5 155 192c-4.423 1.474-4.227 1.505 11.5 1.783 12.806.227 16.846-.039 20.237-1.328 5.931-2.254 8.763-6.547 8.763-13.282 0-4.874-.317-5.618-3.735-8.75-2.055-1.883-4.642-3.423-5.75-3.423-2.578 0-2.617-1.674-.059-2.486 2.989-.949 7.044-6.342 7.044-9.368 0-3.659-2.571-7.069-6.599-8.752C182.384 144.716 153 144.369 153 146m-31 10v9h4.839c4.216 0 4.99-.328 6-2.547 1.502-3.295 1.436-9.512-.121-11.54-1.739-2.265-5.172-3.913-8.152-3.913-2.565 0-2.566.005-2.566 9m48.75-8.421c-.412.415-.75 4.504-.75 9.088V165h5.051c4.87 0 5.106-.131 6.581-3.662 1.804-4.318 1.154-9.316-1.528-11.743-2.065-1.87-8.188-3.189-9.354-2.016M122 178.429c0 8.147.344 10.772 1.571 12 3.819 3.818 10.656.157 12.5-6.693 2.265-8.412-2.764-15.723-10.821-15.732L122 168v10.429m48-.652c0 10.952 1.293 14.223 5.622 14.223 5.796 0 9.378-4.794 9.378-12.55 0-3.955-.508-5.158-3.4-8.05-2.761-2.761-4.171-3.4-7.5-3.4H170v9.777" fill="#00356b" fill-rule="evenodd"/></svg>